{"title":"Elysium.2013.HDRip.XviD.AC3-5.1.HQ.Hive-CM8","uid":9181738,"size":1727992673,"categoryP":"video","categoryS":"movies","magnet":"?xt=urn:btih:c107e89acb0ffcaa8985ee21df6ad99524f1d930&amp;dn=Elysium.2013.HDRip.XviD.AC3-5.1.HQ.Hive-CM8&amp;tr=udp%3A%2F%2Ftracker.openbittorrent.com%3A80&amp;tr=udp%3A%2F%2Fopen.demonii.com%3A1337&amp;tr=udp%3A%2F%2Ftracker.coppersurfer.tk%3A6969&amp;tr=udp%3A%2F%2Fexodus.desync.com%3A6969","seeders":1,"leechers":0,"uploader":"xxxlavalxxx","files":-1,"time":1384236024,"description":" &lt;a href=&quot;\nhttp://www.imdb.com/title/tt1535108/&quot; rel=&quot;nofollow&quot; target=&quot;_NEW&quot;&gt;\nhttp://www.imdb.com/title/tt1535108/&lt;/a&gt;\n\n\n\nSet in the year 2154, where the very wealthy live on a man-made space station while the rest of the population resides on a ruined Earth, a man takes on a mission that could bring equality to the polarized worlds. \n\n\n\nDirector:\n Neill Blomkamp \n\nWriter:\n Neill Blomkamp \n\nStars:\n Matt Damon, Jodie Foster, Sharlto Copley\n\nGenres:\n  Action |  Drama |  Sci-Fi |  Thriller \n\nCountry:\n USA \n\nLanguage:\n English \n\n\nElysium.2013.HDRip.XviD.AC3-5.1.HQ.Hive-CM8\n\nThx Hive\n\nCM8 Doing It Right The First Time\n\nSource: Russian 720p Web-DL\nthx\n\nEncode:\n\nfound that nice webdl early, video was bright enough but colours were low and mostly off, fixed that\nVideo needed lots of Subs for foreign parts only, hardcoded them within my video\n\nAudio took me some time, the web-dl came with stereo english audio and a russian 5.1 track, so i made my special 5.1 track. :=)\nthe russian track had loads of russian voice in it, so took me 2h to clean it\nAfterwards i entered the english track back into the russian 5.1 track, voila a perfect genuine 5.1 track, which is perfect for action movies\n\nsounds a lot nicer now and will do me till retail in around a month\n\nenjoy\n\nVideo: 720x304 @bitrate 1700 2pass\nAudio: English AC3 5.1 @384\nSample: yes included\nSubs: yes hardcoded for foreign parts only\n &lt;a href=&quot;\nhttp://www.imdb.com/title/tt1535108/&quot; rel=&quot;nofollow&quot; target=&quot;_NEW&quot;&gt;\nhttp://www.imdb.com/title/tt1535108/&lt;/a&gt;\n\nGeneral\nComplete name: Elysium.2013.HDRip.XviD.AC3-5.1.HQ.Hive-CM8.avi\nFormat: AVI\nFormat/Info: Audio Video Interleave\nFile size: 1.60 GiB\nDuration: 1h 49mn\nOverall bit rate: 2 093 Kbps\nWriting application: Nandub v1.0rc2\nWriting library: Nandub build 1853/release\n\nVideo\nID: 0\nFormat: MPEG-4 Visual\nFormat profile: Advanced Simple@L5\nFormat settings, BVOP: 2\nFormat settings, QPel: Yes\nFormat settings, GMC: No warppoints\nFormat settings, Matrix: Default (H.263)\nMuxing mode: Packed bitstream\nCodec ID: XVID\nCodec ID/Hint: XviD\nDuration: 1h 49mn\nBit rate: 1 700 Kbps\nWidth: 720 pixels\nHeight: 304 pixels\nDisplay aspect ratio: 2.35:1\nFrame rate: 23.976 fps\nColor space: YUV\nChroma subsampling: 4:2:0\nBit depth: 8 bits\nScan type: Progressive\nCompression mode: Lossy\nBits/(Pixel*Frame): 0.324\nStream size: 1.30 GiB (81%)\nWriting library: XviD 1.2.1 (UTC 2008-12-04)\n\nAudio\nID: 1\nFormat: AC-3\nFormat/Info: Audio Coding 3\nMode extension: CM (complete main)\nFormat settings, Endianness: Big\nCodec ID: 2000\nDuration: 1h 49mn\nBit rate mode: Constant\nBit rate: 384 Kbps\nChannel(s): 6 channels\nChannel positions: Front: L C R, Side: L R, LFE\nSampling rate: 48.0 KHz\nBit depth: 16 bits\nCompression mode: Lossy\nDelay relative to video: 26ms\nStream size: 301 MiB (18%)\nAlignment: Split accross interleaves\nInterleave, duration: 42 ms (1.00 video frame)\nInterleave, preload duration: 500 ms\n\n\n\n\nscreens\n\n &lt;a href=&quot;\nhttp://i.imgur.com/0PDWq3s.png&quot; rel=&quot;nofollow&quot; target=&quot;_NEW&quot;&gt;\nhttp://i.imgur.com/0PDWq3s.png&lt;/a&gt; &lt;a href=&quot;\nhttp://i.imgur.com/hXEUejV.png&quot; rel=&quot;nofollow&quot; target=&quot;_NEW&quot;&gt;\nhttp://i.imgur.com/hXEUejV.png&lt;/a&gt; &lt;a href=&quot;\nhttp://i.imgur.com/1a9lfiE.png&quot; rel=&quot;nofollow&quot; target=&quot;_NEW&quot;&gt;\nhttp://i.imgur.com/1a9lfiE.png&lt;/a&gt; &lt;a href=&quot;\nhttp://i.imgur.com/M9t7TyR.png&quot; rel=&quot;nofollow&quot; target=&quot;_NEW&quot;&gt;\nhttp://i.imgur.com/M9t7TyR.png&lt;/a&gt; &lt;a href=&quot;\nhttp://i.imgur.com/E73rfuC.png&quot; rel=&quot;nofollow&quot; target=&quot;_NEW&quot;&gt;\nhttp://i.imgur.com/E73rfuC.png&lt;/a&gt; &lt;a href=&quot;\nhttp://i.imgur.com/WQ4jJCv.png&quot; rel=&quot;nofollow&quot; target=&quot;_NEW&quot;&gt;\nhttp://i.imgur.com/WQ4jJCv.png&lt;/a&gt;","torrent":{"xt":"urn:btih:c107e89acb0ffcaa8985ee21df6ad99524f1d930","amp;dn":"Elysium.2013.HDRip.XviD.AC3-5.1.HQ.Hive-CM8","amp;tr":["udp%3A%2F%2Ftracker.openbittorrent.com%3A80","udp%3A%2F%2Fopen.demonii.com%3A1337","udp%3A%2F%2Ftracker.coppersurfer.tk%3A6969","udp%3A%2F%2Fexodus.desync.com%3A6969"],"infoHash":"c107e89acb0ffcaa8985ee21df6ad99524f1d930","infoHashBuffer":{"type":"Buffer","data":[193,7,232,154,203,15,252,170,137,133,238,33,223,106,217,149,36,241,217,48]},"announce":[],"urlList":[]}}